<?xml version="1.0" encoding="utf-8"?>
<!-- Generator: Adobe Illustrator 27.5.0, SVG Export Plug-In . SVG Version: 6.00 Build 0)  -->
<svg version="1.1" xmlns="http://www.w3.org/2000/svg" xmlns:xlink="http://www.w3.org/1999/xlink" x="0px" y="0px"
	 viewBox="0 0 500 500" style="enable-background:new 0 0 500 500;" xml:space="preserve">
<g id="Background_Complete">
	<g>
		<rect y="382.398" style="fill:#EBEBEB;" width="500" height="0.25"/>
		<rect x="416.779" y="398.494" style="fill:#EBEBEB;" width="33.122" height="0.25"/>
		<rect x="322.527" y="401.208" style="fill:#EBEBEB;" width="8.693" height="0.25"/>
		<rect x="396.586" y="389.208" style="fill:#EBEBEB;" width="19.192" height="0.25"/>
		<rect x="52.459" y="390.888" style="fill:#EBEBEB;" width="43.193" height="0.25"/>
		<rect x="104.556" y="390.888" style="fill:#EBEBEB;" width="6.333" height="0.25"/>
		<rect x="131.471" y="395.111" style="fill:#EBEBEB;" width="93.676" height="0.25"/>
		<path style="fill:#EBEBEB;" d="M237.014,337.8H43.915c-3.147,0-5.708-2.561-5.708-5.708V60.66c0-3.147,2.561-5.708,5.708-5.708
			h193.099c3.146,0,5.707,2.561,5.707,5.708v271.432C242.721,335.239,240.16,337.8,237.014,337.8z M43.915,55.203
			c-3.01,0-5.458,2.448-5.458,5.458v271.432c0,3.01,2.448,5.458,5.458,5.458h193.099c3.009,0,5.457-2.448,5.457-5.458V60.66
			c0-3.009-2.448-5.458-5.457-5.458H43.915z"/>
		<path style="fill:#EBEBEB;" d="M453.31,337.8H260.212c-3.147,0-5.707-2.561-5.707-5.708V60.66c0-3.147,2.561-5.708,5.707-5.708
			H453.31c3.148,0,5.708,2.561,5.708,5.708v271.432C459.019,335.239,456.458,337.8,453.31,337.8z M260.212,55.203
			c-3.009,0-5.457,2.448-5.457,5.458v271.432c0,3.01,2.448,5.458,5.457,5.458H453.31c3.01,0,5.458-2.448,5.458-5.458V60.66
			c0-3.009-2.448-5.458-5.458-5.458H260.212z"/>
	</g>
	<g>
		<g>
			<path style="fill:#E0E0E0;" d="M189.66,327.613L202.234,359H244l0,0c6.933,7.038,16.4,11,26.279,11H323l6-9h12l1.596,1.508
				c4.412,4.169,10.252,6.492,16.322,6.492l0,0c6.443,0,12.61-2.616,17.088-7.249l0.726-0.751H412l13-23.258L189.66,327.613z"/>
			<path style="fill:#E0E0E0;" d="M410.833,307c2.359,0,11.308,0,13.667,0c15.188,0,27.5,17.013,27.5,38s-12.312,38-27.5,38
				c-2.359,0-11.308,0-13.667,0c-15.188,0-27.5-17.013-27.5-38S395.646,307,410.833,307z"/>
			<path style="fill:#E0E0E0;" d="M168.833,307c2.359,0,11.308,0,13.667,0c15.188,0,27.5,17.013,27.5,38s-12.312,38-27.5,38
				c-2.359,0-11.308,0-13.667,0c-15.188,0-27.5-17.013-27.5-38S153.645,307,168.833,307z"/>
			<path style="fill:#E0E0E0;" d="M289.833,307c2.359,0,11.308,0,13.667,0c15.188,0,27.5,17.013,27.5,38s-12.312,38-27.5,38
				c-2.359,0-11.308,0-13.667,0c-15.188,0-27.5-17.013-27.5-38S274.646,307,289.833,307z"/>
			<path style="fill:#E6E6E6;" d="M472,330.25v10.5c0,2.35-1.9,4.25-4.25,4.25h-330.5c-2.35,0-4.25-1.9-4.25-4.25v-16.39
				c0-1.39,0.69-2.7,1.84-3.49L139,318v-20.4c0-13.43,8.58-25.23,21.1-29.49c0.87-0.3,1.76-0.56,2.66-0.78l23.6-5.77l12.18-22.84
				c5.82-10.91,17.18-17.72,29.55-17.72h111.35c5.88,0,11.55,1.41,16.6,4c6.38,3.26,11.78,8.39,15.36,14.89L386.33,267l13.9,5
				l37.99,13.66c9.09,3.26,16.14,10.55,19.11,19.73L464,326h3.75C470.1,326,472,327.9,472,330.25z"/>
			<path style="fill:#F0F0F0;" d="M275,225l12.33,43c0,0,51.902,4.667,70.523,4.667c24.663,0,28.477-5.667,28.477-5.667
				l-14.93-27.11c-3.58-6.5-8.98-11.63-15.36-14.89H275z"/>
			<polygon style="fill:#F0F0F0;" points="282.333,267.624 271,225 236,225 229,264.667 			"/>
			<path style="fill:#F0F0F0;" d="M224.167,262.957L232,225h-5.753c-11.729,0-22.382,6.834-27.272,17.494l-8.642,18.839
				L224.167,262.957z"/>
			<path style="fill:#F0F0F0;" d="M346,326v19h121.75c2.35,0,4.25-1.9,4.25-4.25v-10.5c0-2.35-1.9-4.25-4.25-4.25H346z"/>
			<ellipse style="fill:#FAFAFA;" cx="355.167" cy="309.833" rx="10.5" ry="11.5"/>
			<ellipse style="fill:#FAFAFA;" cx="444.167" cy="309.833" rx="10.5" ry="11.5"/>
			<ellipse style="fill:#E0E0E0;" cx="284.527" cy="349.5" rx="21.973" ry="29.5"/>
			<ellipse style="fill:#E6E6E6;" cx="282.625" cy="350.926" rx="11.875" ry="15.943"/>
			<ellipse style="fill:#E0E0E0;" cx="164.527" cy="350.5" rx="21.973" ry="29.5"/>
			<ellipse style="fill:#E6E6E6;" cx="162.625" cy="351.926" rx="11.875" ry="15.943"/>
			<path style="fill:#EBEBEB;" d="M371.48,313.38C369.555,301,404,301.25,404,301.25s3,5.25,3.75,18.75
				C407.75,320,373.045,323.446,371.48,313.38z"/>
			<path style="fill:#EBEBEB;" d="M407.75,301.249c0,0,3.5,12.389,2.75,19.32c0,0,20.578,1.764,19.078-8.319
				S407.75,301.249,407.75,301.249z"/>
			<path style="fill:#EBEBEB;" d="M326.674,326H346v19h-19.326c-2.803,0-5.076-2.272-5.076-5.076v-8.849
				C321.599,328.272,323.871,326,326.674,326z"/>
			<path style="fill:#EBEBEB;" d="M287.5,268.869c0,0,42.498,6.131,73.374,24.131H425c0,0-13.25-12.334-37.25-24.167
				C387.75,268.833,379.75,283,287.5,268.869z"/>
			<path style="fill:#E0E0E0;" d="M342.25,294.36L338,300v21l-16.4-0.31L310.65,329c-6.34-21.33-19.65-27.67-35.65-25s-18,25-18,25
				h-66.67c0,0-7.83-22.15-22.33-23.88c-14.5-1.74-19,12.88-19,12.88h-10v-20.4c0-13.43,8.58-25.23,21.1-29.49l26.4-5.15l42.5,3.51
				c0,0,49.67,2.86,55.53,4.31S342.25,294.36,342.25,294.36z"/>
		</g>
		<g>
			<polygon style="fill:#E0E0E0;" points="113.158,383 91.952,220 88.158,220 84.217,220 83.987,220 81.426,220 79.657,220 43,383 
				47,383 80.047,238.264 69.119,383 73.691,383 86.59,237.668 108,383 			"/>
			<g>
				<polygon style="fill:#407BFF;" points="152.44,354.786 62,354.786 41,166.376 131.44,166.376 				"/>
				<polygon style="opacity:0.8;fill:#FFFFFF;enable-background:new    ;" points="152.44,354.786 62,354.786 41,166.376 
					131.44,166.376 				"/>
			</g>
			<g>
				<polygon style="fill:#407BFF;" points="128.877,182.998 47.969,182.998 46.76,172.146 127.668,172.146 				"/>
				<polygon style="fill:#407BFF;" points="100.198,227.827 52.966,227.827 52.547,224.068 99.779,224.068 				"/>
				<polygon style="fill:#407BFF;" points="101.14,236.286 53.909,236.286 53.49,232.527 100.721,232.527 				"/>
				<polygon style="fill:#407BFF;" points="76.614,218.101 51.882,218.101 49.192,193.964 73.923,193.964 				"/>
				<polygon style="fill:#407BFF;" points="106.414,283.602 59.182,283.602 58.764,279.843 105.995,279.843 				"/>
				<polygon style="fill:#407BFF;" points="107.357,292.062 60.125,292.062 59.706,288.303 106.938,288.303 				"/>
				<polygon style="fill:#407BFF;" points="82.83,273.876 58.098,273.876 55.408,249.74 80.14,249.74 				"/>
				<polygon style="opacity:0.6;fill:#FFFFFF;enable-background:new    ;" points="128.877,182.998 47.969,182.998 46.76,172.146 
					127.668,172.146 				"/>
				<polygon style="opacity:0.6;fill:#FFFFFF;enable-background:new    ;" points="100.198,227.827 52.966,227.827 52.547,224.068 
					99.779,224.068 				"/>
				<polygon style="opacity:0.6;fill:#FFFFFF;enable-background:new    ;" points="101.14,236.286 53.909,236.286 53.49,232.527 
					100.721,232.527 				"/>
				<polygon style="opacity:0.6;fill:#FFFFFF;enable-background:new    ;" points="76.614,218.101 51.882,218.101 49.192,193.964 
					73.923,193.964 				"/>
				<polygon style="opacity:0.6;fill:#FFFFFF;enable-background:new    ;" points="106.414,283.602 59.182,283.602 58.764,279.843 
					105.995,279.843 				"/>
				<polygon style="opacity:0.6;fill:#FFFFFF;enable-background:new    ;" points="107.357,292.062 60.125,292.062 59.706,288.303 
					106.938,288.303 				"/>
				<polygon style="opacity:0.6;fill:#FFFFFF;enable-background:new    ;" points="82.83,273.876 58.098,273.876 55.408,249.74 
					80.14,249.74 				"/>
			</g>
		</g>
		<g>
			<rect x="260.007" y="91.025" style="fill:#F5F5F5;" width="175" height="54.632"/>
			
				<text transform="matrix(0.9916 0 0 1 273.274 128.6507)" style="fill:#EBEBEB; font-family:'Raleway-Bold'; font-size:32.9385px;">BIG SALE</text>
		</g>
	</g>
</g>
<g id="Background_Simple" style="display:none;">
	<g style="display:inline;">
		<path style="fill:#577AFA;" d="M138.5,85.94c53.104-21.32,90.384,30.07,100.442,66.065C249,188,273.866,198.083,296.748,185.253
			c22.882-12.831,61.857-66.208,111.054-22.23s-19.069,153.429-124.268,165.22C224.687,334.838,140,312.076,110.321,224.583
			C92.636,172.451,96.007,103,138.5,85.94z"/>
		<path style="opacity:0.9;fill:#FFFFFF;enable-background:new    ;" d="M138.5,85.94c53.104-21.32,90.384,30.07,100.442,66.065
			C249,188,273.866,198.083,296.748,185.253c22.882-12.831,61.857-66.208,111.054-22.23s-19.069,153.429-124.268,165.22
			C224.687,334.838,140,312.076,110.321,224.583C92.636,172.451,96.007,103,138.5,85.94z"/>
	</g>
</g>
<g id="Shadow_1_">
	<ellipse id="_x3C_Path_x3E__359_" style="fill:#F5F5F5;" cx="250" cy="416.238" rx="193.889" ry="11.323"/>
</g>
<g id="Character">
	<g id="_x3C_Group_x3E_">
		<polygon style="fill:#E4897B;" points="333.481,407.028 325.368,407.885 323.846,390.388 331.958,389.531 		"/>
		<polygon style="fill:#E4897B;" points="373.96,406.437 366.1,406.437 365.45,388.227 373.32,388.227 		"/>
		<path style="fill:#2E353A;" d="M365.01,405.527h9.55c0.322,0.002,0.6,0.226,0.67,0.54l1.55,7c0.133,0.627-0.268,1.242-0.895,1.375
			c-0.084,0.018-0.169,0.026-0.255,0.025c-3.09-0.05-5.34-0.24-9.22-0.24c-2.39,0-9.6,0.25-12.9,0.25c-3.3,0-3.73-3.26-2.38-3.56
			c6.06-1.32,10.62-3.15,12.56-4.89C364.05,405.697,364.522,405.518,365.01,405.527z"/>
		<path style="fill:#407BFF;" d="M362.41,406.907c-0.534,0.043-1.067-0.098-1.51-0.4c-0.295-0.243-0.443-0.622-0.39-1
			c-0.006-0.221,0.12-0.425,0.32-0.52c0.87-0.45,3.41,1.11,3.69,1.29c0.066,0.034,0.103,0.107,0.09,0.18
			c-0.01,0.077-0.065,0.14-0.14,0.16C363.796,406.789,363.105,406.887,362.41,406.907z M361.24,405.277
			c-0.083-0.007-0.167,0.01-0.24,0.05c-0.05,0-0.11,0.07-0.12,0.22c-0.032,0.251,0.062,0.501,0.25,0.67
			c0.882,0.4,1.883,0.45,2.8,0.14C363.111,405.828,362.198,405.462,361.24,405.277z"/>
		<path style="fill:#407BFF;" d="M364.42,406.627h-0.09c-0.81-0.44-2.38-2.17-2.22-3c0.057-0.286,0.309-0.491,0.6-0.49
			c0.286-0.038,0.573,0.05,0.79,0.24c0.91,0.74,1.1,3,1.11,3.11c0.001,0.068-0.033,0.133-0.09,0.17
			C364.484,406.658,364.449,406.647,364.42,406.627z M362.84,403.437h-0.09c-0.24,0-0.26,0.14-0.27,0.19
			c-0.1,0.51,0.9,1.82,1.71,2.43c-0.053-0.896-0.377-1.754-0.93-2.46C363.144,403.495,362.995,403.438,362.84,403.437z"/>
		<path style="fill:#2E353A;" d="M324.51,405.277h9.55c0.322,0.002,0.6,0.226,0.67,0.54l1.55,7c0.133,0.627-0.268,1.242-0.895,1.375
			c-0.084,0.018-0.169,0.026-0.255,0.025c-3.09-0.05-5.34-0.24-9.22-0.24c-2.39,0-9.6,0.25-12.9,0.25c-3.3,0-3.73-3.26-2.38-3.56
			c6.06-1.32,10.62-3.15,12.56-4.89C323.55,405.447,324.022,405.268,324.51,405.277z"/>
		<path style="fill:#407BFF;" d="M321.91,406.657c-0.534,0.043-1.067-0.098-1.51-0.4c-0.295-0.243-0.443-0.622-0.39-1
			c-0.006-0.221,0.12-0.425,0.32-0.52c0.87-0.45,3.41,1.11,3.69,1.29c0.066,0.034,0.103,0.107,0.09,0.18
			c-0.01,0.077-0.065,0.14-0.14,0.16C323.296,406.539,322.605,406.637,321.91,406.657z M320.74,405.027
			c-0.083-0.007-0.167,0.01-0.24,0.05c-0.05,0-0.11,0.07-0.12,0.22c-0.032,0.251,0.062,0.501,0.25,0.67
			c0.882,0.4,1.883,0.45,2.8,0.14C322.611,405.578,321.698,405.212,320.74,405.027z"/>
		<path style="fill:#407BFF;" d="M323.92,406.377h-0.09c-0.81-0.44-2.38-2.17-2.22-3c0.057-0.286,0.309-0.491,0.6-0.49
			c0.286-0.038,0.573,0.05,0.79,0.24c0.91,0.74,1.1,3,1.11,3.11c0.001,0.068-0.033,0.133-0.09,0.17
			C323.984,406.408,323.949,406.397,323.92,406.377z M322.34,403.187h-0.09c-0.24,0-0.26,0.14-0.27,0.19
			c-0.1,0.51,0.9,1.82,1.71,2.43c-0.053-0.896-0.377-1.754-0.93-2.46C322.644,403.245,322.495,403.188,322.34,403.187z"/>
		<polygon style="opacity:0.2;enable-background:new    ;" points="331.958,389.531 323.846,390.388 324.638,399.413 
			332.751,398.556 		"/>
		<polygon style="opacity:0.2;enable-background:new    ;" points="373.32,388.237 365.45,388.237 365.79,397.627 373.66,397.627 		
			"/>
		<g>
			<path style="fill:#407BFF;" d="M370.075,228.5h-41.724c-3.967,21.663-16.385,98.323-7.476,166.628L335,393.376
				c0,0-1.308-90.677,11.164-124.2c1.434,17.941,3.138,37.03,4.617,47.187c3.63,25,11.4,79.636,11.4,79.636h14.38
				c0,0-2.94-52.297-4.3-76.867C370.774,292.459,370.132,233.978,370.075,228.5z"/>
			<path style="opacity:0.6;fill:#FFFFFF;enable-background:new    ;" d="M376.56,396h-14.38c0,0-7.77-54.64-11.4-79.64
				c-1.48-10.15-3.18-29.24-4.62-47.18c-1.84,4.94-3.37,11.11-4.66,18.05c-7.45,40.21-6.5,106.15-6.5,106.15l-14.12,2
				c-8.91-68.31,3.5-145.38,7.47-166.38h41.72c0.06,5,0.7,63.71,2.19,90.38C373.62,343.95,376.56,396,376.56,396z"/>
		</g>
		<polygon style="fill:#407BFF;" points="319.259,398.419 336.742,395.818 336.207,390.976 318.021,393.364 		"/>
		<polygon style="fill:#407BFF;" points="360.45,396.117 377.41,396.117 377.41,391.047 359.81,390.717 		"/>
		<path style="fill:#407BFF;" d="M377.3,160.01c-2.31,8.48-3.98,17.13-5,25.87c-0.33,2.68-0.6,5.31-0.82,7.86
			c-0.29,3.24-0.49,6.36-0.65,9.32c-0.2,3.75-0.26,8.18-0.25,12.54c0.02,10.02,0.42,19.65,0.42,19.65c-8,2-31.12,0.67-43.75-0.25
			c-1.64-12.83-1.78-25.37-1.16-36.41c0.5-9.26,1.53-17.46,2.65-23.93c0.98-5.67,2.02-10,2.82-12.52c0.95-2.98,3.54-5.13,6.64-5.51
			c1.53-0.19,3.3-0.38,5.16-0.49c0.72,0,1.44-0.07,2.17-0.08c5.97,0.07,11.92,0.48,17.84,1.24c1.12,0.13,2.26,0.3,3.36,0.48
			C372.36,158.64,377.3,160.01,377.3,160.01z"/>
		<path style="opacity:0.2;enable-background:new    ;" d="M336.71,169.67c0,0-6.73,15.12-10.62,28.92
			c0.5-9.26,1.53-17.46,2.65-23.93L336.71,169.67z"/>
		<g>
			<path style="fill:#407BFF;" d="M335.458,157.487c-9.458,0.763-28.063,31.695-24.563,38.418c3.5,6.722,9.368,9.845,19.487-9.155
				C340.5,167.75,335.458,157.487,335.458,157.487z"/>
			<path style="opacity:0.2;enable-background:new    ;" d="M335.458,157.487c-9.458,0.763-28.063,31.695-24.563,38.418
				c3.5,6.722,9.368,9.845,19.487-9.155C340.5,167.75,335.458,157.487,335.458,157.487z"/>
		</g>
		<path style="fill:#2E353A;" d="M340,122.417c0,0-1.333,8.917,4.417,13.083s5.75-16,5.75-16L340,122.417z"/>
		<path style="fill:#E4897B;" d="M363.38,157.25c-3.83,3.48-13.213,2.193-13.213,2.193s-5.857-1.603-4.627-3.433
			c3.45-0.57,5.12-2.18,5.81-4.24c0.4-1.2,0.46-2.55,0.35-3.94c-0.05-0.73-0.16-1.47-0.29-2.2l11.6-8.59
			C361.49,142.71,359.63,153.14,363.38,157.25z"/>
		<path style="opacity:0.2;enable-background:new    ;" d="M360.33,142.5c-0.46,6.96-6.18,8.88-8.98,9.27
			c0.4-1.2,0.46-2.55,0.35-3.94L360.33,142.5z"/>
		<path style="fill:#E4897B;" d="M361.11,144.11c-2.79,4.01-7.34,5.06-11.29,3.81c-2.54-0.8-4.83-2.56-6.25-5.09
			c-0.19-0.33-0.36-0.68-0.52-1.04c-2.83-6.62-3.73-18.2,3.27-22.54c4.97-3.13,11.55-1.64,14.68,3.34c0.9,1.41,1.44,3.02,1.6,4.69
			C363.46,135.02,364.33,139.53,361.11,144.11z"/>
		<path style="fill:#2E353A;" d="M351.317,131.415c0.149,0.612-0.133,1.185-0.548,1.255c-0.415,0.07-0.825-0.386-0.935-1.007
			c-0.11-0.621,0.143-1.188,0.548-1.255C350.787,130.34,351.204,130.784,351.317,131.415z"/>
		<path style="fill:#2E353A;" d="M344.252,132.622c0.149,0.612-0.143,1.188-0.549,1.255c-0.405,0.068-0.825-0.386-0.935-1.007
			c-0.11-0.622,0.143-1.188,0.548-1.255C343.722,131.547,344.149,132.029,344.252,132.622z"/>
		<path style="fill:#DE5753;" d="M346.549,132.546c-0.418,2.038-1.115,4.009-2.073,5.857c0.975,0.473,2.11,0.49,3.099,0.048
			L346.549,132.546z"/>
		<path style="fill:#2E353A;" d="M353.118,128.753c-0.132,0.042-0.277,0.011-0.38-0.082c-0.675-0.664-1.623-0.971-2.559-0.828
			c-0.198,0.049-0.399-0.072-0.448-0.271c-0.049-0.198,0.072-0.399,0.271-0.448c0.001,0,0.001,0,0.002,0
			c1.178-0.211,2.386,0.162,3.239,1.002c0.153,0.135,0.167,0.369,0.032,0.522c-0.002,0.002-0.004,0.005-0.006,0.007
			C353.224,128.695,353.173,128.729,353.118,128.753z"/>
		<path style="fill:#2E353A;" d="M349.143,141.514L349.143,141.514c1.862-0.035,3.59-0.975,4.63-2.52
			c0.054-0.094,0.023-0.214-0.07-0.27c-0.088-0.057-0.206-0.031-0.262,0.057c-0.003,0.004-0.005,0.008-0.008,0.013
			c-0.991,1.409-2.588,2.268-4.31,2.32c-0.105,0-0.19,0.084-0.191,0.189c0,0.007,0,0.014,0.001,0.021
			c-0.001,0.105,0.084,0.19,0.189,0.191C349.129,141.515,349.137,141.514,349.143,141.514z"/>
		<path style="fill:#2E353A;" d="M340.8,130.704c-0.064,0.039-0.139,0.058-0.214,0.052c-0.197-0.054-0.313-0.258-0.259-0.455
			c0.001-0.003,0.001-0.005,0.002-0.008c0.309-1.161,1.163-2.098,2.29-2.513c0.195-0.059,0.402,0.051,0.461,0.247
			c0,0,0,0.001,0,0.001c0.054,0.196-0.055,0.399-0.248,0.462l0,0c-0.88,0.354-1.541,1.102-1.783,2.019
			C341,130.608,340.908,130.679,340.8,130.704z"/>
		<path style="fill:#2E353A;" d="M352.833,122.25c2.167-1.083,4.741,0.619,4.167,2.917c-0.75,3,1.418,7.246,3.833,8.75
			c0,0-0.083-1.25,1-1.083c1.083,0.167,1.583,6.667-0.083,10c0,0,2.75-3.167,3.667-10.167c0.917-7,0.333-12.583-1.583-14.5
			c-1.917-1.917-2.417,0.083-3.833-2.583c-1.417-2.667-4.25-5.667-6.667-3.917c-2.417,1.75-4.917,2.083-6.833,0.75
			c-1.917-1.333-4.083,0.833-3.833,3.25c0.25,2.417-3.75,0.667-4.583,3.167C337.25,121.333,339.144,129.094,352.833,122.25z"/>
		<path style="opacity:0.2;enable-background:new    ;" d="M349.82,147.92c-2.54-0.8-4.83-2.56-6.25-5.09
			c1.89,0.01,4.64,0.11,5.36,0.55C349.65,143.81,349.81,146.23,349.82,147.92z"/>
		<path style="fill:#E4897B;" d="M367.028,133.001c-0.555,1.882-1.833,3.467-3.555,4.408c-2.289,1.229-3.999-0.684-3.844-3.142
			c0.159-2.183,1.516-5.522,4.052-5.714C366.215,128.361,367.68,130.682,367.028,133.001z"/>
		<g>
			<path style="fill:#407BFF;" d="M361.67,152.833l-11.088,5l-0.65-4.008l-4.077,1.434c-1.463,0.515-2.382,1.966-2.221,3.509
				l0.46,4.399l5.626-3.079l2.803,3.965l13.319-6.415L361.67,152.833z"/>
			<path style="opacity:0.6;fill:#FFFFFF;enable-background:new    ;" d="M361.67,152.833l-11.088,5l-0.65-4.008l-4.077,1.434
				c-1.463,0.515-2.382,1.966-2.221,3.509l0.46,4.399l5.626-3.079l2.803,3.965l13.319-6.415L361.67,152.833z"/>
		</g>
		<path style="fill:#E4897B;" d="M333.84,171.912l9.409-15.323c0,0,2.434-0.44,3.881-2.487c1.446-2.047,2.354-9.98,1.669-10.338
			c-0.685-0.358-7.983,0.499-8.495,1.478c-0.511,0.978-1.952,9.1-1.952,9.1l-10.843,12.706L333.84,171.912z"/>
		<g>
			<path style="fill:#407BFF;" d="M312.643,185.331c4.603-7.572,20.79-27.293,20.79-27.293l7.511,5.064
				c0,0-13.534,27.458-18.614,32.803C317.25,201.25,306.135,196.036,312.643,185.331z"/>
			<path style="opacity:0.1;enable-background:new    ;" d="M312.643,185.331c4.603-7.572,20.79-27.293,20.79-27.293l7.511,5.064
				c0,0-13.534,27.458-18.614,32.803C317.25,201.25,306.135,196.036,312.643,185.331z"/>
		</g>
		<path style="opacity:0.2;enable-background:new    ;" d="M370.83,203.06c-0.2,3.75-0.26,8.18-0.25,12.54
			c-14.74-1.6-18.413-9.643-18.413-9.643l19.312-12.217C371.19,196.98,370.99,200.1,370.83,203.06z"/>
		<path style="fill:#E4897B;" d="M342.25,196.636l-17.938-1.243c0,0-1.518-1.954-4.002-2.288c-2.484-0.334-9.935,2.536-9.935,3.309
			c0,0.773,4.14,6.844,5.243,6.844s8.969-2.484,8.969-2.484l16.282,3.726L342.25,196.636z"/>
		<g>
			<path style="fill:#407BFF;" d="M377.175,160.088c0,0,3.776,2.15,4.325,12.662c0.494,9.476-2.56,29.648-8.5,34.056
				c-9.495,7.046-44-2.669-44-2.669l1.33-10.174c0,0,26.12,3.462,32.34,0c6.22-3.462,8.08-21.212,8.08-21.212
				S373.35,161.176,377.175,160.088z"/>
			<path style="opacity:0.1;enable-background:new    ;" d="M377.175,160.088c0,0,3.776,2.15,4.325,12.662
				c0.494,9.476-2.56,29.648-8.5,34.056c-9.495,7.046-44-2.669-44-2.669l1.33-10.174c0,0,26.12,3.462,32.34,0
				c6.22-3.462,8.08-21.212,8.08-21.212S373.35,161.176,377.175,160.088z"/>
		</g>
		<g>
			<polygon style="fill:#407BFF;" points="332.831,193.178 331.1,205.957 327.933,204.735 328.741,193.379 			"/>
			<polygon style="opacity:0.6;fill:#FFFFFF;enable-background:new    ;" points="332.831,193.178 331.1,205.957 327.933,204.735 
				328.741,193.379 			"/>
		</g>
		<g>
			<polygon style="fill:#407BFF;" points="331.207,159.313 333.625,156.875 341.704,162.875 340.944,166 			"/>
			<polygon style="opacity:0.6;fill:#FFFFFF;enable-background:new    ;" points="331.207,159.313 333.625,156.875 341.704,162.875 
				340.944,166 			"/>
		</g>
		<path style="opacity:0.2;enable-background:new    ;" d="M346.16,269.18c-1.84,4.94-3.37,11.11-4.66,18.05
			c-1.167-15.965,3.5-32.897,3.5-32.897L346.16,269.18z"/>
	</g>
</g>
<g id="Sales">
	<g>
		<polygon style="fill:#E4897B;" points="244.344,397.093 238.036,398.207 235.45,389.606 233.089,381.713 240.362,379.172 
			242.474,388.659 		"/>
		<polygon style="opacity:0.2;enable-background:new    ;" points="242.508,388.854 235.48,389.779 233.105,381.799 240.37,379.216 
					"/>
		<polygon style="fill:#E4897B;" points="202.234,400 195.829,400 194.777,390.979 193.825,382.744 201.429,381.482 
			201.859,391.281 		"/>
		<polygon style="opacity:0.2;enable-background:new    ;" points="201.859,391.364 194.777,391.053 193.825,382.781 201.429,381.5 
					"/>
		<path style="fill:#EEC1BB;" d="M252.246,200.973l10.345-10.221c0,0,0.358-2.738,1.358-3.501c1.001-0.763,8.098-3.337,8.965-2.765
			c0.867,0.572,2.075,6.308,0.861,7.356c-1.214,1.049-7.668,2.393-8.329,2.28l-11.191,13.285L252.246,200.973z"/>
		<g>
			<path style="fill:#407BFF;" d="M215.205,182.347c4.462,2.365,20.295,24.501,22.628,25.6c2.333,1.099,20.162-13.36,20.162-13.36
				l3.005,5.126c0,0-14.628,20.667-22.898,19.667c-8.269-1-24.102-18.5-24.102-18.5L215.205,182.347z"/>
			<path style="opacity:0.3;enable-background:new    ;" d="M215.205,182.347c4.462,2.365,20.295,24.501,22.628,25.6
				c2.333,1.099,20.162-13.36,20.162-13.36l3.005,5.126c0,0-14.628,20.667-22.898,19.667c-8.269-1-24.102-18.5-24.102-18.5
				L215.205,182.347z"/>
		</g>
		<polygon style="fill:#407BFF;" points="257.015,195.129 258.25,193.962 261.5,199.462 260.333,201.712 		"/>
		<path style="opacity:0.2;enable-background:new    ;" d="M220.36,207.342c-3.7-3.53-6.36-6.46-6.36-6.46l0.28-4.4l1.39-4.27
			C215.67,192.212,221.91,197.962,220.36,207.342z"/>
		<g>
			<path style="fill:#2E353A;" d="M243.102,383.849l-10.369,1.828c-10.464-26.07-17.907-47.831-23.163-65.889
				c-2.831-9.744-5.193-18.409-6.888-26.098L203,322.07V386h-10.219c-25.615-122-7.462-149.804-7.462-149.804l30.643-5.102
				c1.165,4.574,2.046,12.056,2.566,17.217l1.382,10.166l11.979,61.872L243.102,383.849z"/>
		</g>
		<g>
			<path style="fill:#407BFF;" d="M185,236.461c0,0-4.593,10.553-5.922,15.027l23.076,2.724l3.659-13.75l5.277,12.75l8.66-3.265
				L217,234.065L185,236.461z"/>
			<path style="opacity:0.3;enable-background:new    ;" d="M185,236.461c0,0-4.593,10.553-5.922,15.027l23.076,2.724l3.659-13.75
				l5.277,12.75l8.66-3.265L217,234.065L185,236.461z"/>
		</g>
		<polygon style="fill:#2E353A;" points="185,231.886 185,236.461 217,234.065 217,228.655 		"/>
		
			<rect x="202.729" y="230.065" transform="matrix(0.996 -0.0892 0.0892 0.996 -19.9307 19.3155)" style="fill:#FFFFFF;" width="6.86" height="5.203"/>
		<g>
			
				<rect x="194.46" y="229.997" transform="matrix(0.9987 -0.051 0.051 0.9987 -11.6849 10.2684)" style="fill:#407BFF;" width="1.552" height="7.906"/>
			
				<rect x="194.46" y="229.997" transform="matrix(0.9987 -0.051 0.051 0.9987 -11.6849 10.2684)" style="opacity:0.3;enable-background:new    ;" width="1.552" height="7.906"/>
		</g>
		<g>
			
				<rect x="213.551" y="227.901" transform="matrix(0.9987 -0.051 0.051 0.9987 -11.5395 11.2262)" style="fill:#407BFF;" width="1.552" height="7.906"/>
			
				<rect x="213.551" y="227.901" transform="matrix(0.9987 -0.051 0.051 0.9987 -11.5395 11.2262)" style="opacity:0.3;enable-background:new    ;" width="1.552" height="7.906"/>
		</g>
		<path style="opacity:0.2;enable-background:new    ;" d="M209.57,319.788c-2.831-9.744-5.038-18.409-6.733-26.098
			c0,0,0.17-14.943,1.979-27.215C204.817,266.474,209.305,301.578,209.57,319.788z"/>
		<path style="fill:#2E353A;" d="M180.156,158.274c0.902,3.458-4.031,12.993-2.031,30.341s21.025,16.289,29.575,10.506
			c8.55-5.783,7.071-37.166,4.13-43.355C208.89,149.578,180.156,158.274,180.156,158.274z"/>
		<g>
			<path style="fill:#407BFF;" d="M216.701,229.202l-31.259,2.699c-0.493-7.765-0.985-13.693-3.324-22.954
				c-0.748-2.992-1.686-6.335-2.888-10.199c-0.644-2.064-1.354-4.28-2.15-6.667c-0.597-1.809-1.241-3.731-1.951-5.757
				c4.252-1.354,8.579-2.405,12.973-3.134c4.631-0.824,9.328-1.316,14.034-1.477c6.079-0.047,13.068,0.634,13.068,0.634
				s0.994,0.237,1.619,6.686C217.392,195.083,217.951,207.186,216.701,229.202z"/>
			<path style="opacity:0.3;enable-background:new    ;" d="M216.701,229.202l-31.259,2.699c-0.493-7.765-0.985-13.693-3.324-22.954
				c-0.748-2.992-1.686-6.335-2.888-10.199c-0.644-2.064-1.354-4.28-2.15-6.667c-0.597-1.809-1.241-3.731-1.951-5.757
				c4.252-1.354,8.579-2.405,12.973-3.134c4.631-0.824,9.328-1.316,14.034-1.477c6.079-0.047,13.068,0.634,13.068,0.634
				s0.994,0.237,1.619,6.686C217.392,195.083,217.951,207.186,216.701,229.202z"/>
		</g>
		<path style="fill:#FFFFFF;" d="M196.522,180.813c-3.748,0.224-9.75,0.187-13.636,6.187H190l-3.875,4.731
			c0,0,12.456,2.968,16.353,11.135c0,0,5.577-9.681,8.612-11.931c0,0-2.916-2.987-6.316-4.612c0,0,2.906-1.312,6.316-1.867
			C211.09,184.457,201.594,180.51,196.522,180.813z"/>
		<g>
			<path style="fill:#407BFF;" d="M189.539,184.338c0,0,9.644,10.874,12.615,16.124c0,0,2.347-8.568-0.403-17.409L189.539,184.338z"
				/>
			<path style="opacity:0.6;fill:#FFFFFF;enable-background:new    ;" d="M189.539,184.338c0,0,9.644,10.874,12.615,16.124
				c0,0,2.347-8.568-0.403-17.409L189.539,184.338z"/>
		</g>
		<path style="fill:#EEC1BB;" d="M199.557,188.615c-7.703-0.986-10.018-4.277-10.018-4.277c4.888-4.611,0.827-12.602,0.827-12.602
			l9.272,1.731c-0.244,1.532-0.348,2.818-0.362,3.904c-0.07,5.628,2.475,5.683,2.475,5.683
			C203.378,186.102,199.557,188.615,199.557,188.615z"/>
		<path style="opacity:0.2;enable-background:new    ;" d="M199.638,173.467c-0.244,1.532-0.348,2.818-0.362,3.904
			c-6.263,0-8.91-5.635-8.91-5.635L199.638,173.467z"/>
		<g>
			<path style="fill:#EEC1BB;" d="M194.513,147.541c8.06-0.442,10.891,3.731,11.936,12.005c1.307,10.34-0.591,17.84-10.79,16.175
				C181.807,173.46,181.127,148.274,194.513,147.541z"/>
			<path style="fill:#D4827D;" d="M201.214,159.381c0,0,1.232,2.044,2.528,3.214c0,0-0.63,1.134-2.075,1.028L201.214,159.381z"/>
			<g>
				<path style="fill:#2E353A;" d="M196.244,158.992c0.052,0.661-0.264,1.225-0.704,1.26c-0.441,0.035-0.84-0.473-0.892-1.135
					c-0.052-0.661,0.264-1.225,0.704-1.26C195.793,157.823,196.193,158.331,196.244,158.992z"/>
				<path style="fill:#2E353A;" d="M195.171,157.904l1.394-0.677C196.565,157.227,195.944,158.494,195.171,157.904z"/>
			</g>
			<g>
				<path style="fill:#2E353A;" d="M204.454,158.211c0.052,0.661-0.264,1.225-0.704,1.26c-0.441,0.034-0.84-0.474-0.892-1.135
					c-0.052-0.661,0.264-1.225,0.704-1.26C204.003,157.042,204.402,157.55,204.454,158.211z"/>
				<path style="fill:#2E353A;" d="M203.38,157.123l1.394-0.676C204.774,156.447,204.153,157.713,203.38,157.123z"/>
			</g>
			
				<path style="fill:none;stroke:#2E353A;stroke-width:0.6862;stroke-linecap:round;stroke-linejoin:round;stroke-miterlimit:10;" d="
				M195.859,153.431c0,0-2.281-0.17-3.429,1.41"/>
			
				<path style="fill:none;stroke:#2E353A;stroke-width:0.6862;stroke-linecap:round;stroke-linejoin:round;stroke-miterlimit:10;" d="
				M201.698,152.77c0,0,1.395-0.605,3.249,0.486"/>
			<path style="fill:#2E353A;" d="M200.666,166.859c-0.413,0.997-0.787,2.851-0.787,2.851c-0.174-0.004-0.348-0.007-0.522-0.02
				c-2.359-0.109-3.418-0.938-3.876-1.825c-0.249-0.486-0.312-0.995-0.31-1.408c-0.002-0.477,0.106-0.818,0.106-0.818
				c1.216,0.805,3.408,1.075,4.584,1.171C200.354,166.855,200.666,166.859,200.666,166.859z"/>
			<path style="fill:#FFFFFF;" d="M199.862,166.81l-0.254,0.835c-2.222-0.108-3.771-0.482-4.436-1.187
				c-0.002-0.477,0.106-0.818,0.106-0.818C196.494,166.443,198.686,166.714,199.862,166.81z"/>
			<path style="fill:#DE5753;" d="M199.357,169.69c-2.359-0.109-3.418-0.938-3.876-1.825c0.802,0.068,1.762,0.239,2.595,0.64
				C198.716,168.808,199.105,169.249,199.357,169.69z"/>
			<path style="fill:#2E353A;" d="M186.448,161.608c0,0,3.406-6.829,2.555-11.91c0,0,15.615-7.4,17.291,8.769
				c0,0,0.772-14.481-13.101-14.043c-13.851,0.438-12.704,20.705-5.217,26.353C187.976,170.777,184.344,165.878,186.448,161.608z"/>
			<path style="fill:#EEC1BB;" d="M187.858,163.238c-0.125-1.295-1.584-3.418-3.983-3.022c-2.483,0.409-3.392,5.602,2.888,6.495
				C187.663,166.838,188.118,165.939,187.858,163.238z"/>
		</g>
		<path style="fill:#2E353A;" d="M191.15,148.894c0,0,1.279,9.944-4.7,18.971c-4.535,6.846,0.675,12.848,0.675,12.848
			s-10.759-3.712-6.067-18.981c0,0-5.058-13.644,4.89-17.317c0,0,0.057-4.159,9.055-3.368c8.998,0.791,16.248,8.504,17.623,18.335
			c1.375,9.831-3.75,20.794-3.75,20.794S214.324,145.337,191.15,148.894z"/>
		<g>
			<path style="fill:#2E353A;" d="M191.629,148.749c0,0,0.031,0.12,0.088,0.345c0.05,0.221,0.119,0.543,0.184,0.953
				c0.133,0.819,0.261,1.993,0.278,3.401c0.011,0.703-0.005,1.465-0.063,2.267c-0.051,0.802-0.133,1.646-0.268,2.511
				c-0.118,0.867-0.293,1.754-0.493,2.649c-0.197,0.896-0.449,1.792-0.711,2.684c-0.292,0.892-0.569,1.758-0.924,2.614
				c-0.328,0.859-0.709,1.673-1.101,2.451c-0.782,1.556-1.661,2.93-2.506,4.033c-0.844,1.106-1.65,1.942-2.247,2.488
				c-0.596,0.548-0.981,0.808-0.981,0.808s0.375-0.273,0.951-0.839c0.576-0.564,1.35-1.424,2.151-2.55
				c0.802-1.124,1.626-2.514,2.347-4.078c0.36-0.78,0.712-1.603,1.004-2.454c0.316-0.836,0.572-1.74,0.825-2.612
				c0.229-0.889,0.447-1.78,0.611-2.667c0.166-0.886,0.309-1.762,0.396-2.615c0.104-0.85,0.156-1.678,0.179-2.461
				c0.03-0.783,0.02-1.524-0.014-2.205c-0.063-1.363-0.224-2.486-0.376-3.257c-0.074-0.386-0.149-0.683-0.201-0.883
				c-0.056-0.193-0.086-0.296-0.086-0.296L191.629,148.749z"/>
		</g>
		<path style="opacity:0.2;enable-background:new    ;" d="M183.35,214.332c-0.34-1.68-0.74-3.47-1.23-5.39
			c-0.31-1.22-0.65-2.5-1.03-3.86c0.97-3.41,1.972-0.745,1.972-0.745S184.063,208.462,183.35,214.332z"/>
		<path style="fill:#EEC1BB;" d="M146.238,236.956l-11.196,9.281c0,0-2.76,0.085-3.618,1.005c-0.858,0.92-4.124,7.727-3.641,8.647
			c0.483,0.92,6.071,2.69,7.235,1.586c1.164-1.104,3.141-7.393,3.094-8.062l14.329-9.819L146.238,236.956z"/>
		<g>
			<path style="fill:#407BFF;" d="M175.13,186.324c0,0-10.796,31.888-13.963,35.722C158,225.879,141.5,239.712,141.5,239.712
				l2.167,6.5c0,0,18.333-10.5,22.667-14.667c3.34-3.212,16.667-27,16.667-27S182.593,189.269,175.13,186.324z"/>
			<path style="opacity:0.3;enable-background:new    ;" d="M175.13,186.324c0,0-10.796,31.888-13.963,35.722
				C158,225.879,141.5,239.712,141.5,239.712l2.167,6.5c0,0,18.333-10.5,22.667-14.667c3.34-3.212,16.667-27,16.667-27
				S182.593,189.269,175.13,186.324z"/>
		</g>
		<polygon style="fill:#407BFF;" points="139.833,239.712 142,237.879 145.167,246.879 142.667,247.879 		"/>
		<path style="fill:#2E353A;" d="M210.915,412.688c-1.017-0.823-2.176-1.454-3.42-1.86l0,0c0,0-3.72-3.69-5.51-14.8l-4.87-1.27
			c-1.693-0.411-3.463,0.281-4.43,1.73c-0.135,0.196-0.24,0.412-0.31,0.64c-0.251,1.191-0.424,2.397-0.52,3.61
			c-0.49,3.76-0.07,12.2-0.07,12.2h0.88l0.35-7.66c0.13-2.6,2.12,0.45,2.69,3.25c0.57,2.8,1.78,5.78,7.48,5.92
			C209.835,414.578,212.595,414.318,210.915,412.688z"/>
		<path style="fill:#2E353A;" d="M253.415,411.938c-1.017-0.823-2.176-1.454-3.42-1.86l0,0c0,0-3.72-3.69-5.51-14.8l-4.87-1.27
			c-1.693-0.411-3.463,0.281-4.43,1.73c-0.135,0.196-0.24,0.412-0.31,0.64c-0.251,1.191-0.424,2.397-0.52,3.61
			c-0.49,3.76-0.07,12.2-0.07,12.2h0.88l0.35-7.66c0.13-2.6,2.12,0.45,2.69,3.25c0.57,2.8,1.78,5.78,7.48,5.92
			C252.335,413.828,255.095,413.568,253.415,411.938z"/>
	</g>
</g>
<g id="Motocycle">
	<g>
		<path style="fill:#2E353A;" d="M136.504,378.612l4.882,11.235c1.887,4.343,6.171,7.152,10.906,7.152h20.466
			c2.717,0,5.322-1.079,7.243-3l0,0h38.229c2.996,0,5.809-1.441,7.559-3.872l5.055-7.023L136.504,378.612z"/>
		<g>
			<path style="fill:#407BFF;" d="M167.646,334.053c0,5.382,21.484,43.664,23.636,45.186c2.153,1.522,30.186-0.182,30.186-0.182
				L219.378,387H142.34l-31.976-62.112l21.152-30.525l38.552,1.066C170.068,295.429,167.646,328.671,167.646,334.053z"/>
			<path style="opacity:0.2;enable-background:new    ;" d="M167.646,334.053c0,5.382,21.484,43.664,23.636,45.186
				c2.153,1.522,30.186-0.182,30.186-0.182L219.378,387H142.34l-31.976-62.112l21.152-30.525l38.552,1.066
				C170.068,295.429,167.646,328.671,167.646,334.053z"/>
		</g>
		<ellipse style="fill:#2E353A;" cx="105.097" cy="378.686" rx="31.406" ry="37.893"/>
		<ellipse style="fill:#FFFFFF;" cx="99.84" cy="378.686" rx="19.808" ry="23.9"/>
		<g>
			<ellipse style="fill:#407BFF;" cx="95.291" cy="378.369" rx="8.251" ry="9.955"/>
			<ellipse style="opacity:0.4;enable-background:new    ;" cx="95.291" cy="378.369" rx="8.251" ry="9.955"/>
		</g>
		<g>
			<path style="fill:#407BFF;" d="M280.074,321.448c0,0-28.358,21.745-39.167,66.552h-45.397l43.008-69.962l22.68-9.433
				L280.074,321.448z"/>
			<path style="opacity:0.4;enable-background:new    ;" d="M283.045,319.236c0,0-26.518,20.278-39.177,58.415
				c-2.043,6.153-7.74,10.349-14.223,10.349h-34.134l43.008-69.962l22.68-9.433L283.045,319.236z"/>
		</g>
		<path style="fill:#407BFF;" d="M280.271,321h-17.513c-3.337,0-6.588,0.884-9.354,2.736c-10.398,6.921-34.994,26.223-37.567,56.804
			c-0.355,4.166-3.8,7.461-7.987,7.461h-76.122c-12.788,0-25.35-3.391-36.394-9.828l-21.765-12.68
			c-4.811-2.809-7.32-8.375-6.178-13.821c2.594-12.487,9.89-33.918,30.784-42.303c0.323-0.151-0.173-0.28,0.827-0.398V296h54.563
			c0,0-10.947,26.087-10.947,36.852c0,10.183,10.764,49.148,24.682,53.148h19.044c5.091,0,9.785-3.058,12.282-7.504
			c9.257-16.523,29.827-59.388,23.412-99.893c-0.743-4.736,2.896-9.603,7.697-9.603h24.499c0,0,22.045,25.516,29.139,47.087
			C284.06,318.186,282.488,321,280.271,321z"/>
		<g>
			<path style="fill:#2E353A;" d="M240.975,260.885h-6.982c-1.834,0-3.628-0.636-5.054-1.789l-14.391-11.648
				c-0.568-0.46-1.283-0.713-2.013-0.713h-27.638c-1.104,0-2-0.896-2-2c0-1.105,0.896-2,2-2h27.638c1.643,0,3.251,0.569,4.529,1.604
				l14.391,11.648c0.716,0.579,1.617,0.898,2.537,0.898h6.982c1.996,0,3.712-1.49,3.992-3.467l0.637-4.494
				c0.5-3.528,3.564-6.189,7.127-6.189h5.264c1.105,0,2,0.895,2,2c0,1.104-0.895,2-2,2h-5.264c-1.583,0-2.945,1.183-3.167,2.75
				l-0.637,4.494C248.37,257.916,244.951,260.885,240.975,260.885z"/>
		</g>
		<g>
			<path style="fill:#407BFF;" d="M228.652,252.399c0,0,0.084,4.717-4.337,4.422l-1.448,5.122c-0.412,1.457-0.19,3.02,0.612,4.305
				l3.131,5.018h29.036l2.284-4.295c0.747-1.404,0.499-3.131-0.613-4.269l-8.632-8.836c-0.917-0.938-2.173-1.467-3.485-1.467
				H228.652z"/>
			<path style="opacity:0.4;enable-background:new    ;" d="M228.652,252.399c0,0,0.084,4.717-4.337,4.422l-1.448,5.122
				c-0.412,1.457-0.19,3.02,0.612,4.305l3.131,5.018h29.036l2.284-4.295c0.747-1.404,0.499-3.131-0.613-4.269l-8.632-8.836
				c-0.917-0.938-2.173-1.467-3.485-1.467H228.652z"/>
		</g>
		<ellipse style="fill:#2E353A;" cx="278.454" cy="378.686" rx="31.406" ry="37.893"/>
		<ellipse style="fill:#FFFFFF;" cx="273.197" cy="378.686" rx="19.809" ry="23.9"/>
		<g>
			<path style="fill:#407BFF;" d="M309.359,354.251c-3.313-5.627-12.163-17.805-28.065-21.365
				c-4.694-1.051-8.832-1.006-12.433-0.361l-0.071-0.162l0.071-0.155c-0.043,0.009-0.084,0.021-0.126,0.029L266,326h-3.111
				c-2.524,0-4.981,0.82-6.999,2.337l-5.459,4.103l2.565,8.91c-0.981,1.057-1.668,1.95-2.081,2.525
				c-5.136,6.398-8.225,14.057-9.141,19.697c-0.208,1.277,0.792,2.429,2.086,2.429h1.643c0.872,0,1.649-0.529,1.962-1.343
				c0.845-2.201,2.915-6.682,6.792-10.203l9.107,23.713l7.33-3.082l-2.564-29.553c0,0,16.86-4.737,27.895,8.895
				c1.307,1.615,3.261,2.573,5.339,2.573h6.41C309.186,357,310.075,355.467,309.359,354.251z"/>
			<path style="opacity:0.2;enable-background:new    ;" d="M309.359,354.251c-3.313-5.627-12.163-17.805-28.065-21.365
				c-4.694-1.051-8.832-1.006-12.433-0.361l-0.071-0.162l0.071-0.155c-0.043,0.009-0.084,0.021-0.126,0.029L266,326h-3.111
				c-2.524,0-4.981,0.82-6.999,2.337l-5.459,4.103l2.565,8.91c-0.981,1.057-1.668,1.95-2.081,2.525
				c-5.136,6.398-8.225,14.057-9.141,19.697c-0.208,1.277,0.792,2.429,2.086,2.429h1.643c0.872,0,1.649-0.529,1.962-1.343
				c0.845-2.201,2.915-6.682,6.792-10.203l9.107,23.713l7.33-3.082l-2.564-29.553c0,0,16.86-4.737,27.895,8.895
				c1.307,1.615,3.261,2.573,5.339,2.573h6.41C309.186,357,310.075,355.467,309.359,354.251z"/>
		</g>
		<g>
			<ellipse style="fill:#407BFF;" cx="268.648" cy="378.369" rx="8.251" ry="9.955"/>
			<ellipse style="opacity:0.4;enable-background:new    ;" cx="268.648" cy="378.369" rx="8.251" ry="9.955"/>
		</g>
		<g>
			<path style="fill:#407BFF;" d="M238.942,272.365c0,0,5.19,32.672,22.33,32.9c16.064,0.213,17.564-30.461,2.235-35.177
				C251.125,266.277,238.942,272.365,238.942,272.365z"/>
			<path style="opacity:0.2;enable-background:new    ;" d="M238.942,272.365c0,0,5.19,32.672,22.33,32.9
				c16.064,0.213,17.564-30.461,2.235-35.177C251.125,266.277,238.942,272.365,238.942,272.365z"/>
		</g>
		<path style="fill:#FFFFFF;" d="M273.126,287.387c0.38,8.296-4.62,15.022-11.167,15.022s-12.162-6.726-12.542-15.022
			c-0.38-8.297,4.619-15.022,11.167-15.022C267.131,272.365,272.746,279.09,273.126,287.387z"/>
		<polygon style="fill:#407BFF;" points="256.826,265.96 241.939,265.96 243.119,264.044 256.826,264.044 		"/>
		<path style="fill:#2E353A;" d="M175,294.621v3.757c0,3.412-2.793,5.623-6.206,5.623h-67.627c-3.423,0-6.167-2.211-6.167-5.623
			v-3.757c0-3.412,2.744-5.621,6.167-5.621h67.627C172.207,289,175,291.208,175,294.621z"/>
		<path style="opacity:0.2;fill:#FFFFFF;enable-background:new    ;" d="M153,294.621v3.757c0,3.412-2.332,5.623-5.755,5.623
			h-46.077c-3.423,0-6.167-2.211-6.167-5.623v-3.757c0-3.412,2.744-5.621,6.167-5.621h46.077C150.668,289,153,291.208,153,294.621z"
			/>
		<path style="opacity:0.2;enable-background:new    ;" d="M144.493,363.88V388h-12.766c-12.788,0-25.35-3.391-36.394-9.828
			l-21.765-12.68c-4.811-2.809-7.32-8.375-6.178-13.821c2.594-12.487,10.032-33.918,30.925-42.303l0.969,0.054h8.444
			c9.953,0,19.006,5.762,23.22,14.78l9.019,19.301C142.948,349.882,144.493,356.838,144.493,363.88z"/>
		<g>
			
				<rect x="204.583" y="228" transform="matrix(0.7943 -0.6075 0.6075 0.7943 -101.6394 173.6057)" style="fill:#2E353A;" width="2" height="17.834"/>
		</g>
		<path style="fill:#407BFF;" d="M194.45,227.5h5.101c1.081,0,2.059,0.644,2.484,1.638l0.683,1.594
			c0.764,1.784-0.544,3.768-2.484,3.768h-5.557c-1.345,0-2.486-0.989-2.676-2.321l-0.228-1.594
			C191.542,228.957,192.805,227.5,194.45,227.5z"/>
		<g>
			
				<rect x="245.028" y="237" transform="matrix(0.2061 -0.9785 0.9785 0.2061 -33.2161 435.0609)" style="fill:#2E353A;" width="12.944" height="2"/>
		</g>
		<path style="fill:#407BFF;" d="M258.815,227.5h-5.488c-1.111,0-2.054,0.817-2.211,1.918l-0.362,2.534
			c-0.192,1.345,0.852,2.548,2.211,2.548h5.488c1.111,0,2.053-0.817,2.211-1.917l0.362-2.534
			C261.218,228.704,260.174,227.5,258.815,227.5z"/>
		<g>
			<path style="fill:#407BFF;" d="M211.775,292.629l-8.67-18.27c-1.108-2.34-3.896-3.368-6.262-2.311L174.21,282.09
				c-0.924,0.413-1.685,1.101-2.193,1.976L148.67,324.25c-1.522,2.627-0.238,6.004,2.652,6.949l33.009,10.796
				c2.253,0.737,4.688-0.276,5.758-2.389l21.635-42.763C212.396,295.526,212.412,293.963,211.775,292.629z M197.832,278.547
				c-1.445-0.472-2.231-2.024-1.759-3.469c0.473-1.445,2.024-2.231,3.469-1.759s2.231,2.024,1.759,3.469
				C200.828,278.233,199.276,279.02,197.832,278.547z"/>
			<path style="opacity:0.6;fill:#FFFFFF;enable-background:new    ;" d="M211.775,292.629l-8.67-18.27
				c-1.108-2.34-3.896-3.368-6.262-2.311L174.21,282.09c-0.924,0.413-1.685,1.101-2.193,1.976L148.67,324.25
				c-1.522,2.627-0.238,6.004,2.652,6.949l33.009,10.796c2.253,0.737,4.688-0.276,5.758-2.389l21.635-42.763
				C212.396,295.526,212.412,293.963,211.775,292.629z M197.832,278.547c-1.445-0.472-2.231-2.024-1.759-3.469
				c0.473-1.445,2.024-2.231,3.469-1.759s2.231,2.024,1.759,3.469C200.828,278.233,199.276,279.02,197.832,278.547z"/>
		</g>
		
			<text transform="matrix(0.9425 0.3082 -0.4675 0.884 159.8454 318.7332)" style="fill:#2E353A; font-family:'Raleway-Regular'; font-size:46.2977px;">$</text>
		<path style="fill:none;stroke:#577AFA;stroke-linecap:round;stroke-linejoin:round;stroke-miterlimit:10;" d="M200.625,274.25
			c0,0,10.625,0.5,9.5-9.25c-1.436-12.445,13.125-12.875,11.375-17.625"/>
	</g>
</g>
</svg>
